#!OML:ASF F:\VICON\USERDATA\INSTALL\Justin_Nancy\Justin_Nancy.ASF
:FULLY-SPECIFIED
:DEGREES
33
root 0.864554 17.0168 -20.2443 2.58753 -7.43241 -6.24954
lowerback 4.81607 2.2563 4.88579
upperback -0.167092 3.38822 3.72276
thorax -2.8185 1.63976 0.865141
lowerneck -15.5454 -2.92051 -8.45044
upperneck 20.5471 -2.68371 3.38226
head 9.19983 -1.54896 2.23056
rclavicle 3.67752e-015 1.27222e-014
rhumerus -22.5902 -1.85708 -79.6407
rradius 41.0375
rwrist 0.460445
rhand -15.7816 11.8505
rfingers 7.12502
rthumb 10.4109 -17.8718
lclavicle 3.67752e-015 1.27222e-014
lhumerus -39.8211 6.19054 85.8867
lradius 26.4005
lwrist -8.78452
lhand -10.226 29.1604
lfingers 7.12502
lthumb 15.766 58.5383
rfemur 16.7902 7.1511 33.2663
rtibia 9.7439
rfoot -13.7603 -6.00772
rtoes -2.76845
lfemur -37.1632 -7.87863 -6.55324
ltibia 20.7004
lfoot -8.94281 14.8351
ltoes -1.67249
34
root 0.876664 16.9927 -19.9918 2.71857 -7.72528 -6.16604
lowerback 4.70737 2.41094 4.89825
upperback -0.21679 3.58565 3.59025
thorax -2.79569 1.73686 0.712347
lowerneck -15.9029 -2.98652 -8.42257
upperneck 21.0302 -2.78875 3.522
head 9.44198 -1.58485 2.2627
rclavicle -2.08972e-014 -1.43125e-014
rhumerus -22.1032 -2.20209 -79.6487
rradius 41.1098
rwrist 0.509149
rhand -15.8686 11.9109
rfingers 7.12502
rthumb 10.3269 -17.8155
lclavicle -2.08972e-014 -1.43125e-014
lhumerus -40.1519 6.97733 85.2986
lradius 25.7697
lwrist -9.06536
lhand -10.6499 28.8657
lfingers 7.12502
lthumb 15.3577 58.2754
rfemur 17.5793 7.13399 32.8995
rtibia 9.7332
rfoot -13.7061 -5.40618
rtoes -3.75918
lfemur -37.1882 -8.43517 -6.24325
ltibia 19.7134
lfoot -9.83863 15.9921
ltoes -4.34329
35
root 0.888361 16.9685 -19.7452 2.78087 -7.9551 -6.04365
lowerback 4.7537 2.43222 4.8117
upperback -0.320347 3.61705 3.51907
thorax -2.92886 1.74985 0.680069
lowerneck -16.1516 -2.92754 -8.60918
upperneck 21.4635 -2.71625 3.83738
head 9.64213 -1.5356 2.4165
rclavicle -7.55382e-015 -4.21423e-014
rhumerus -21.7595 -2.26451 -79.703
rradius 41.1315
rwrist 0.620021
rhand -15.8009 12.0003
rfingers 7.12502
rthumb 10.3923 -17.7229
lclavicle -7.55382e-015 -4.21423e-014
lhumerus -40.6161 8.06334 84.604
lradius 25.1468
lwrist -9.72945
lhand -11.3084 28.1942
lfingers 7.12502
lthumb 14.7234 57.6513
rfemur 18.1013 7.03817 32.5058
rtibia 10.2324
rfoot -13.6302 -4.64557
rtoes -5.33929
lfemur -37.022 -7.37352 -6.96258
ltibia 19.063
lfoot -10.1117 15.3805
ltoes -9.78005
36
root 0.90332 16.9544 -19.4861 2.66499 -8.28962 -5.79437
lowerback 4.73009 2.46047 4.60915
upperback -0.249337 3.63658 3.4951
thorax -2.85223 1.76465 0.768881
lowerneck -16.2164 -2.81165 -8.7356
upperneck 21.4319 -2.51273 3.83415
head 9.6311 -1.45081 2.46275
rclavicle -3.68994e-014 -2.14687e-014
rhumerus -21.3359 -2.214 -79.6614
rradius 41.1603
rwrist 0.747672
rhand -15.9384 11.8402
rfingers 7.12502
rthumb 10.2596 -17.8895
lclavicle -3.68994e-014 -2.14687e-014
lhumerus -41.0831 9.10009 84.0885
lradius 24.6448
lwrist -10.2412
lhand -11.7803 27.3684
lfingers 7.12502
lthumb 14.2688 56.8582
rfemur 18.4544 7.22312 32.018
rtibia 11.3501
rfoot -13.7387 -3.4218
rtoes -8.48306
lfemur -36.4104 -5.51997 -8.31919
ltibia 18.5909
lfoot -9.87894 13.7205
ltoes -13.114
37
root 0.91926 16.9335 -19.2198 2.49023 -8.60205 -5.73273
lowerback 4.79126 2.54126 4.61146
upperback -0.209218 3.74624 3.49668
thorax -2.84303 1.81955 0.760017
lowerneck -16.0027 -2.76962 -8.62083
upperneck 21.3283 -2.44065 3.57333
head 9.54578 -1.43747 2.36152
rclavicle -2.21148e-015 -1.74931e-014
rhumerus -21.1446 -2.31464 -79.5504
rradius 41.2851
rwrist 0.784506
rhand -16.199 11.9644
rfingers 7.12502
rthumb 10.0082 -17.7776
lclavicle -2.21148e-015 -1.74931e-014
lhumerus -41.5864 10.0892 83.523
lradius 24.04
lwrist -10.8012
lhand -12.1941 26.5148
lfingers 7.12502
lthumb 13.87 56.0323
rfemur 18.8529 7.40174 31.7499
rtibia 12.6138
rfoot -13.4782 -3.04119
rtoes -10.1199
lfemur -35.7361 -4.05313 -9.2609
ltibia 18.4634
lfoot -9.26081 12.2768
ltoes -11.2753
38
root 0.932941 16.9165 -18.9486 2.38465 -8.60897 -5.43095
lowerback 4.67796 2.6229 4.41685
upperback -0.210205 3.83233 3.3529
thorax -2.78115 1.86567 0.719482
lowerneck -15.9022 -2.80334 -8.35179
upperneck 21.3319 -2.5188 3.36739
head 9.52696 -1.47578 2.23508
rclavicle 4.44781e-015 -1.98785e-014
rhumerus -21.0402 -2.803 -79.454
rradius 41.3671
rwrist 0.829408
rhand -16.3271 12.0564
rfingers 7.12502
rthumb 9.88463 -17.6915
lclavicle 4.44781e-015 -1.98785e-014
lhumerus -41.9348 10.6483 82.9715
lradius 23.3673
lwrist -11.2687
lhand -11.8807 26.9058
lfingers 7.12502
lthumb 14.172 56.4024
rfemur 19.1945 7.43039 31.2654
rtibia 13.8647
rfoot -13.1353 -2.62754
rtoes -11.1307
lfemur -35.4263 -3.02874 -10.3293
ltibia 18.8876
lfoot -8.42844 11.0181
ltoes -7.39982
39
root 0.943736 16.9052 -18.6784 2.1989 -8.39236 -5.1249
lowerback 4.55741 2.58457 4.21636
upperback -0.148515 3.75494 3.20483
thorax -2.65334 1.83196 0.69066
lowerneck -15.7968 -2.80411 -8.13388
upperneck 21.2535 -2.56529 3.28097
head 9.47788 -1.48895 2.16263
rclavicle 1.02374e-014 3.18055e-015
rhumerus -20.674 -3.40955 -79.4301
rradius 41.1057
rwrist 0.78956
rhand -15.9903 12.3417
rfingers 7.12502
rthumb 10.2095 -17.3905
lclavicle 1.02374e-014 3.18055e-015
lhumerus -42.2243 11.4203 82.2344
lradius 22.6194
lwrist -11.9109
lhand -11.064 27.813
lfingers 7.12502
lthumb 14.9589 57.2527
rfemur 19.4818 7.293 30.8455
rtibia 15.28
rfoot -12.5105 -2.24086
rtoes -12.4792
lfemur -35.171 -2.5022 -11.2782
ltibia 19.7534
lfoot -7.78654 10.2301
ltoes -4.64126
40
root 0.952255 16.8992 -18.408 1.90024 -8.18062 -4.92063
lowerback 4.67617 2.47599 3.99466
upperback -0.195297 3.60892 3.19813
thorax -2.78382 1.76016 0.808842
lowerneck -15.4193 -2.76822 -8.25827
upperneck 21.2525 -2.52504 3.31208
head 9.40746 -1.48007 2.20166
rclavicle 8.62228e-015 2.38542e-015
rhumerus -20.6422 -3.7274 -79.3369
rradius 40.8777
rwrist 0.65471
rhand -15.5678 12.8949
rfingers 7.12502
rthumb 10.6171 -16.8169
lclavicle 8.62228e-015 2.38542e-015
lhumerus -42.7866 12.3755 81.5134
lradius 21.8165
lwrist -12.5236
lhand -11.0934 27.4855
lfingers 7.12502
lthumb 14.9305 56.9274
rfemur 19.7406 7.10715 30.5709
rtibia 16.8145
rfoot -11.5751 -1.83684
rtoes -13.7366
lfemur -34.7887 -1.98147 -12.1664
ltibia 20.949
lfoot -7.48097 9.49864
ltoes -3.97557
41
root 0.964965 16.8895 -18.1246 1.73778 -8.01073 -4.74863
lowerback 4.59235 2.39963 3.83723
upperback -0.26405 3.49795 3.22222
thorax -2.82004 1.70672 0.930377
lowerneck -15.6305 -2.7464 -8.65988
upperneck 21.8196 -2.4529 3.62551
head 9.65139 -1.45221 2.39192
rclavicle -1.45858e-014 -1.74931e-014
rhumerus -20.8776 -3.92603 -79.1933
rradius 41.0307
rwrist 0.426999
rhand -15.4719 13.0188
rfingers 7.12502
rthumb 10.7096 -16.6882
lclavicle -1.45858e-014 -1.74931e-014
lhumerus -43.346 13.3085 80.857
lradius 21.0874
lwrist -13.3931
lhand -11.229 27.3355
lfingers 7.12502
lthumb 14.7998 56.787
rfemur 19.8662 6.87265 30.2476
rtibia 18.2809
rfoot -10.2803 -1.26501
rtoes -14.5774
lfemur -34.5698 -1.51945 -12.9968
ltibia 22.4249
lfoot -7.45218 8.61424
ltoes -4.37437
